<?xml version="1.0" standalone="no"?><!DOCTYPE svg PUBLIC "-//W3C//DTD SVG 1.1//EN" "http://www.w3.org/Graphics/SVG/1.1/DTD/svg11.dtd"><svg t="1681408463924" class="icon" viewBox="0 0 1026 1024" version="1.1" xmlns="http://www.w3.org/2000/svg" p-id="2991" xmlns:xlink="http://www.w3.org/1999/xlink" width="200.390625" height="200"><path d="M991.118348 84.385123H853.162144v173.412363h139.130073c30.573933 0 46.114349-28.332912 24.824646-45.260627l-29.626835-23.544063c-13.112642-10.431421-13.005927-27.02565 0.253449-37.350355l27.91939-21.743242c21.636527-16.901036 6.13613-45.514075-24.544519-45.514076z" fill="#FFE41F" p-id="2992"></path><path d="M227.623735 0h573.714792a53.35765 53.35765 0 0 1 53.35765 53.35765v917.2847a53.35765 53.35765 0 0 1-53.35765 53.35765H227.623735a13.339412 13.339412 0 0 1-13.339413-13.339412V13.339412a13.339412 13.339412 0 0 1 13.339413-13.339412zM53.35765 0h59.827265a13.339412 13.339412 0 0 1 13.339412 13.339412v997.321176a13.339412 13.339412 0 0 1-13.339412 13.339412H53.35765a53.35765 53.35765 0 0 1-53.35765-53.35765V53.35765A53.35765 53.35765 0 0 1 53.35765 0z" fill="#2674FD" p-id="2993"></path><path d="M661.474787 260.705478L386.522816 549.677171c-10.924979 11.485234 1.640748 29.73355 16.260744 23.61076l166.595923-69.725109a14.673354 14.673354 0 0 1 19.102039 7.71018l70.15197 162.740832c6.296203 14.673354 28.092803 10.111275 28.092803-5.802644V270.790074a14.673354 14.673354 0 0 0-25.251508-10.084596z" fill="#FFE41F" p-id="2994"></path></svg>